HIERARCHY
ROOT hip
{
	OFFSET 0.000000 0.000000 0.000000 
	CHANNELS 6 Xposition Yposition Zposition Xrotation Zrotation Yrotation
	JOINT abdomen
	{
		OFFSET 0.000000 3.402643 0.000000 
		CHANNELS 3 Xrotation Zrotation Yrotation
		JOINT chest
		{
			OFFSET 0.000000 8.438565 -0.680529 
			CHANNELS 3 Xrotation Zrotation Yrotation
			JOINT neck
			{
				OFFSET 0.000000 10.207942 -0.272212 
				CHANNELS 3 Xrotation Zrotation Yrotation
				JOINT head
				{
					OFFSET 0.000000 3.130431 0.000000 
					CHANNELS 3 Xrotation Zrotation Yrotation
					End Site
					{
						OFFSET 0.000000 3.130435 0.000000 
					}
				}
			}
			JOINT lCollar
			{
				OFFSET 3.470700 6.669187 -0.816635 
				CHANNELS 3 Yrotation Zrotation Xrotation
				JOINT lShldr
				{
					OFFSET 3.198488 0.000000 0.000000 
					CHANNELS 3 Zrotation Yrotation Xrotation
					JOINT lForeArm
					{
						OFFSET 10.139888 0.000000 0.000000 
						CHANNELS 3 Yrotation Zrotation Xrotation
						JOINT lHand
						{
							OFFSET 8.370511 0.000000 0.000000 
							CHANNELS 3 Zrotation Yrotation Xrotation
							End Site
							{
								OFFSET 4.083176 0.000000 0.000000 
							}
						}
					}
				}
			}
			JOINT rCollar
			{
				OFFSET -3.470700 6.669187 -0.816635 
				CHANNELS 3 Yrotation Zrotation Xrotation
				JOINT rShldr
				{
					OFFSET -3.198488 0.000000 0.000000 
					CHANNELS 3 Zrotation Yrotation Xrotation
					JOINT rForeArm
					{
						OFFSET -10.139888 0.000000 0.000000 
						CHANNELS 3 Yrotation Zrotation Xrotation
						JOINT rHand
						{
							OFFSET -8.370511 0.000000 0.000000 
							CHANNELS 3 Zrotation Yrotation Xrotation
							End Site
							{
								OFFSET -4.083176 0.000000 0.000000 
							}
						}
					}
				}
			}
		}
	}
	JOINT lThigh
	{
		OFFSET 5.308129 -1.633274 1.361059 
		CHANNELS 3 Xrotation Zrotation Yrotation
		JOINT lShin
		{
			OFFSET -2.041588 -20.007561 0.000000 
			CHANNELS 3 Xrotation Zrotation Yrotation
			JOINT lFoot
			{
				OFFSET 0.000000 -19.190928 -1.224953 
				CHANNELS 3 Xrotation Yrotation Zrotation
				End Site
				{
					OFFSET 0.000000 -2.449906 4.627600 
				}
			}
		}
	}
	JOINT rThigh
	{
		OFFSET -5.308129 -1.633274 1.361059 
		CHANNELS 3 Xrotation Zrotation Yrotation
		JOINT rShin
		{
			OFFSET 2.041588 -20.007561 0.000000 
			CHANNELS 3 Xrotation Zrotation Yrotation
			JOINT rFoot
			{
				OFFSET 0.000000 -19.190928 -1.224953 
				CHANNELS 3 Xrotation Yrotation Zrotation
				End Site
				{
					OFFSET 0.000000 -2.449906 4.627600 
				}
			}
		}
	}
}
MOTION
Frames: 14
Frame Time: 0.011111
26.699671 51.121330 151.600204 -177.091690 -179.847641 2.035903 17.403875 -1.230506 2.980152 -32.061512 -6.113478 0.950261 -8.785417 -4.937920 1.807163 30.648394 -2.634444 -2.958857 -10.256527 -0.734681 -0.809317 -60.499664 -0.195282 31.647381 -57.729263 9.042951 11.393635 8.524705 12.647240 -64.671280 6.318032 -3.285348 0.526703 70.640106 -6.478137 56.222527 65.240959 -9.459102 14.804650 -8.534408 -12.637552 41.068218 0.267030 -2.259154 -17.874035 29.089905 -5.402874 -4.751180 -37.365356 7.171816 4.396906 -2.507565 -6.488889 2.968451 31.674921 5.209038 5.059353 -39.105461 -11.432780 -7.679404 
26.692129 51.107685 151.573273 -177.013275 -179.933060 1.844720 19.502787 -0.893305 2.106656 -29.835022 -5.431445 0.687242 -17.697803 -5.445837 2.400081 35.467030 -2.960806 -2.036392 -10.256527 -0.734681 -0.809317 -62.124813 -5.046383 26.895092 -57.135502 8.972761 11.131812 8.524705 12.647240 -65.462296 6.318032 -3.285348 0.526703 69.070854 1.047241 57.997478 63.472061 -9.452209 13.987382 -8.534408 -12.637552 43.411968 0.443357 -2.221500 -18.065773 28.949200 -5.412201 -4.741131 -37.547020 7.140218 4.435870 -2.507645 -6.421618 2.912035 31.854158 5.199637 5.082209 -38.878567 -11.705448 -7.730368 
26.695360 51.111275 151.559250 -176.993607 -179.868774 1.753340 19.487665 -0.915811 1.962181 -29.814739 -5.357000 0.648185 -17.654808 -5.293467 2.429200 35.494274 -3.241500 -2.021276 -10.256527 -0.734681 -0.809317 -62.059155 -4.857155 26.634455 -57.433662 9.014470 11.276085 8.524705 12.647240 -64.983780 6.318032 -3.285348 0.526703 69.203453 1.003674 57.288258 63.429325 -9.450735 13.964543 -8.534408 -12.637552 42.992046 0.547003 -2.265437 -18.019897 28.850931 -5.409283 -4.712277 -37.589462 7.126408 4.429493 -2.515757 -6.475553 2.968997 31.923037 5.204813 5.079956 -38.995312 -11.643229 -7.732847 
26.701109 51.118458 151.552795 -176.983765 -179.762741 1.718407 19.522038 -1.001033 1.757242 -29.824339 -5.332802 0.597500 -17.405327 -5.465899 2.512022 35.161602 -2.914104 -1.760332 -10.256527 -0.734681 -0.809317 -62.495193 -4.702475 25.422180 -57.581478 9.028961 11.334767 8.524705 12.647240 -65.589249 6.318032 -3.285348 0.526703 69.393669 1.055316 56.585148 63.343693 -9.448256 13.927054 -8.534408 -12.637552 42.747902 0.628733 -2.358047 -17.846869 28.810684 -5.412145 -4.709456 -37.463394 7.175563 4.421640 -2.527931 -6.598792 3.003122 31.933027 5.199626 5.098845 -38.959473 -11.625696 -7.711466 
26.704340 51.123486 151.536987 -176.973801 -179.799423 1.573634 19.523722 -0.932821 1.738769 -29.814196 -5.295060 0.581944 -17.482433 -5.378157 2.624919 35.517284 -3.079694 -1.655582 -10.256527 -0.734681 -0.809317 -63.061245 -4.589864 24.146671 -57.634338 9.034477 11.357196 8.524705 12.647240 -66.614639 6.318032 -3.285348 0.526703 69.482544 1.134499 55.994453 63.109726 -9.443658 13.816998 -8.534408 -12.637552 42.269390 0.682902 -2.304027 -17.800171 28.818361 -5.421731 -4.731997 -37.470737 7.246728 4.469508 -2.498030 -6.538359 3.143767 31.883522 5.199697 5.094527 -38.872818 -11.645986 -7.702121 
26.705776 51.122047 151.510406 -176.944260 -179.984573 1.387870 19.493402 -0.714134 1.884034 -29.745518 -5.292760 0.604779 -17.440542 -5.257499 2.684959 35.620838 -3.311577 -1.592034 -10.256527 -0.734681 -0.809317 -63.588017 -4.481016 23.120058 -57.814732 9.054076 11.428279 8.524705 12.647240 -67.503304 6.318032 -3.285348 0.526703 69.561111 1.133830 55.238705 62.982594 -9.442801 13.765618 -8.534408 -12.637552 41.566265 0.692679 -2.108793 -17.790228 28.850153 -5.411997 -4.722625 -37.644379 7.142530 4.471429 -2.409398 -6.311834 3.282187 31.793612 5.214388 5.051785 -38.817448 -11.605784 -7.622159 
26.709728 51.111275 151.489578 -176.924545 179.910522 1.246832 19.474516 -0.615012 1.925803 -29.686426 -5.264231 0.596417 -17.229889 -5.423234 2.758274 35.467655 -3.091819 -1.448963 -10.256527 -0.734681 -0.809317 -64.018417 -4.366076 21.967157 -58.101871 9.088618 11.562849 8.524705 12.647240 -67.503304 6.318032 -3.285348 0.526703 69.592918 1.029391 54.866833 63.195450 -9.446709 13.854333 -8.534408 -12.637552 41.781109 0.699723 -2.009024 -17.775595 28.870022 -5.412083 -4.724395 -37.771030 6.907258 4.372575 -2.331984 -6.158501 3.476649 31.714508 5.209163 5.062857 -38.808765 -11.590441 -7.633530 
26.716192 51.103012 151.472702 -176.904846 179.961014 1.087676 19.526951 -0.797164 2.027688 -29.598942 -5.357449 0.646645 -17.397654 -5.105468 2.715798 35.836662 -3.365127 -1.540874 -10.256527 -0.734681 -0.809317 -64.013832 -4.107697 21.575254 -58.452766 9.126548 11.713143 8.524705 12.647240 -67.669319 6.318032 -3.285348 0.526703 69.952209 1.061539 54.253757 63.300938 -9.446622 13.904257 -8.534408 -12.637552 42.054546 0.787175 -2.067435 -17.767828 28.860405 -5.412074 -4.713814 -37.880348 6.832903 4.368970 -2.322830 -6.189141 3.682146 31.693672 5.218585 5.053882 -38.824314 -11.533020 -7.598185 
26.715834 51.100502 151.461197 -176.846207 -179.953323 1.024374 19.584391 -0.761610 1.773798 -29.666586 -5.237255 0.572246 -17.218884 -4.614709 2.661072 35.670521 -4.281032 -1.739511 -10.256527 -0.734681 -0.809317 -64.539421 -3.612981 20.687353 -58.846779 9.168425 11.885638 8.524705 12.647240 -67.766975 6.318032 -3.285348 0.526703 69.796730 0.964701 54.320461 63.439945 -9.451422 13.975123 -8.534408 -12.637552 42.445171 0.937599 -2.148344 -17.669941 28.800589 -5.409234 -4.727301 -37.823475 6.892346 4.365942 -2.283467 -6.294947 3.678670 31.732933 5.218694 5.067085 -38.840443 -11.388333 -7.526853 
26.719425 51.100857 151.454376 -176.768112 -179.951385 1.034060 19.706341 -0.850312 1.843869 -29.717293 -5.429076 0.616865 -16.962574 -4.141571 2.455353 35.500931 -4.660169 -2.038340 -10.256527 -0.734681 -0.809317 -64.433029 -3.376783 20.372204 -59.037544 9.184711 11.968846 8.524705 12.647240 -67.786514 6.318032 -3.285348 0.526703 70.272179 0.843370 53.615173 63.578995 -9.455031 14.036400 -8.534408 -12.637552 42.786964 1.027617 -2.104384 -17.538895 28.759706 -5.421527 -4.696655 -37.687859 6.881848 4.320135 -2.176561 -6.286094 3.651477 31.783497 5.209107 5.078616 -38.975517 -11.285915 -7.521972 
26.726969 51.103729 151.443985 -176.738739 -179.983994 0.967453 19.699436 -0.635785 1.556951 -29.852135 -5.146369 0.501340 -16.604643 -4.695764 2.778794 35.407818 -4.374100 -1.611262 -10.256527 -0.734681 -0.809317 -65.340546 -2.948066 19.016169 -59.282284 9.208524 12.083817 8.524705 12.647240 -67.845108 6.318032 -3.285348 0.526703 69.830116 0.594984 53.921036 63.707218 -9.458105 14.096967 -8.534408 -12.637552 43.099464 1.103297 -2.050549 -17.454737 28.699259 -5.422297 -4.711092 -37.662113 6.973577 4.381311 -2.147461 -6.238697 3.713026 31.833296 5.209309 5.073316 -39.091167 -11.132506 -7.492411 
26.724813 51.105171 151.426712 -176.767914 -179.972702 0.829859 19.613026 -0.599263 1.518412 -29.940298 -5.136912 0.498484 -17.394873 -4.919178 2.985035 36.960430 -3.746044 -1.402181 -10.256527 -0.734681 -0.809317 -65.866310 -2.464146 18.148203 -59.601357 9.236287 12.225144 8.524705 12.647240 -67.727921 6.318032 -3.285348 0.526703 69.839088 0.350231 53.853836 63.791100 -9.455993 14.135804 -8.534408 -12.637552 43.138531 1.115956 -2.065796 -17.457052 28.679705 -5.422253 -4.699624 -37.730972 7.095826 4.465378 -2.205558 -6.275441 3.759632 31.855227 5.189910 5.089351 -39.085930 -11.083953 -7.439235 
26.725889 51.095112 151.401581 -176.777542 -179.924759 0.641316 19.551962 -0.700093 1.545273 -29.970228 -5.194918 0.507308 -17.261259 -5.036211 3.080899 37.274559 -3.170599 -1.148694 -10.256527 -0.734681 -0.809317 -66.086792 -1.986976 17.503912 -59.771694 9.250367 12.295852 8.524705 12.647240 -67.952530 6.318032 -3.285348 0.526703 69.956352 0.186958 53.732048 63.812565 -9.455885 14.137536 -8.534408 -12.637552 43.128761 1.196993 -2.136042 -17.478941 28.638271 -5.431962 -4.698392 -37.841148 7.126301 4.549169 -2.235758 -6.317034 3.885190 31.854158 5.199633 5.082208 -39.034893 -11.206602 -7.499890 
26.731277 51.091877 151.379288 -176.718872 -179.902695 0.503067 19.590761 -0.787317 1.526543 -29.989492 -5.155904 0.504929 -17.438786 -5.387626 3.349790 37.794724 -2.490563 -0.630310 -10.256527 -0.734681 -0.809317 -66.306488 -1.628648 16.690260 -60.260513 9.286140 12.509923 8.524705 12.647240 -66.878311 6.318032 -3.285348 0.526703 69.963676 0.040332 54.347767 63.814022 -9.460195 14.146178 -8.534408 -12.637552 44.954937 1.328826 -2.148744 -17.385138 28.570900 -5.420729 -4.679906 -37.831120 7.131576 4.540626 -2.174535 -6.291634 4.094292 31.842865 5.209305 5.083882 -39.036732 -11.397577 -7.614301 
